<?xml version="1.0" encoding="UTF-8"?>
<!DOCTYPE svg PUBLIC "-//W3C//DTD SVG 1.1//EN" "http://www.w3.org/Graphics/SVG/1.1/DTD/svg11.dtd">
<!-- Creator: CorelDRAW X7 -->
<svg xmlns="http://www.w3.org/2000/svg" xml:space="preserve" width="210mm" height="297mm" version="1.1" style="shape-rendering:geometricPrecision; text-rendering:geometricPrecision; image-rendering:optimizeQuality; fill-rule:evenodd; clip-rule:evenodd"
viewBox="0 0 21000 29700"
 xmlns:xlink="http://www.w3.org/1999/xlink">
 <defs>
  <style type="text/css">
   <![CDATA[
    .str0 {stroke:#373435;stroke-width:20}
    .fil1 {fill:#373435}
    .fil0 {fill:#F58634}
    .fil4 {fill:#E6E7E8;fill-rule:nonzero}
    .fil2 {fill:#848688;fill-rule:nonzero}
    .fil3 {fill:#F58634;fill-rule:nonzero}
   ]]>
  </style>
 </defs>
 <g id="Layer_x0020_1">
  <metadata id="CorelCorpID_0Corel-Layer"/>
  <circle class="fil0 str0" cx="11088" cy="10551" r="3500"/>
  <circle class="fil1 str0" cx="11088" cy="10551" r="3281"/>
  <g id="_2151815712752">
   <path class="fil2" d="M10253 10465c301,-31 601,-88 904,-144 294,-538 568,-1085 863,-1622 54,-102 5,-130 -45,-130 0,0 -564,1 -564,1 -102,0 -180,61 -240,172 -189,344 -361,680 -538,1031 -48,87 -380,692 -380,692zm-400 735c234,21 474,5 700,-32 51,-8 102,-17 152,-26 0,0 -353,642 -353,642 0,0 -111,193 -111,193 -58,90 -131,138 -224,134 -187,0 -375,0 -562,0 -51,0 -99,-24 -46,-121 0,0 111,-194 111,-194 0,0 333,-596 333,-596z"/>
   <path class="fil3" d="M11519 10256c-422,71 -853,167 -1276,211 -165,18 -320,19 -460,-10 -615,-125 -691,-823 -435,-1300 -513,388 -731,991 -551,1431 83,201 310,418 595,519 362,128 776,125 1151,63 187,-31 372,-68 557,-104 0,0 1,0 1,0 67,-183 329,-638 418,-810zm451 695c185,-14 348,-15 455,7 217,45 361,171 445,334 145,282 109,676 -43,958 513,-387 732,-991 551,-1431 -82,-200 -310,-417 -594,-518 -133,-47 -274,-76 -418,-91 -2,0 -396,741 -396,741z"/>
   <path class="fil4" d="M12856 11266c160,283 127,693 -30,984 -405,285 -946,308 -1318,55 -346,-235 -576,-644 -417,-1210 44,-158 334,-659 428,-840 277,-505 532,-1018 809,-1521 60,-107 138,-166 239,-165 0,0 563,1 563,1 50,0 98,25 44,123 -199,362 -381,713 -569,1083 0,0 -240,434 -240,434 0,0 -395,741 -395,741 -125,279 -159,584 134,723 229,108 646,32 752,-408z"/>
   <path class="fil4" d="M9506 12316l0 45 -38 0 0 85c0,17 1,28 1,30 1,3 3,6 5,8 3,1 6,2 10,2 5,0 12,-1 22,-5l5 43c-13,6 -28,9 -44,9 -10,0 -19,-2 -27,-5 -8,-4 -14,-8 -18,-14 -4,-5 -6,-12 -8,-21 -1,-7 -2,-20 -2,-40l0 -92 -25 0 0 -45 25 0 0 -42 56 -33 0 75 38 0zm252 103c0,-18 5,-36 14,-54 9,-17 22,-30 39,-39 17,-10 35,-14 56,-14 32,0 58,10 78,31 21,21 31,47 31,79 0,32 -10,58 -31,79 -20,21 -46,32 -78,32 -19,0 -37,-5 -55,-13 -17,-9 -31,-22 -40,-39 -9,-17 -14,-37 -14,-62zm58 3c0,21 5,37 15,48 10,12 22,17 36,17 15,0 27,-5 37,-17 10,-11 15,-27 15,-48 0,-21 -5,-37 -15,-48 -10,-11 -22,-17 -37,-17 -14,0 -26,6 -36,17 -10,11 -15,27 -15,48zm417 -3c0,-18 4,-36 14,-54 9,-17 22,-30 38,-39 17,-10 36,-14 56,-14 32,0 59,10 79,31 20,21 30,47 30,79 0,32 -10,58 -30,79 -21,21 -47,32 -78,32 -19,0 -38,-5 -55,-13 -18,-9 -31,-22 -40,-39 -10,-17 -14,-37 -14,-62zm57 3c0,21 5,37 15,48 10,12 22,17 37,17 14,0 27,-5 36,-17 10,-11 15,-27 15,-48 0,-21 -5,-37 -15,-48 -9,-11 -22,-17 -36,-17 -15,0 -27,6 -37,17 -10,11 -15,27 -15,48zm430 105l0 -291 56 0 0 291 -56 0zm319 -59l57 -9c2,11 7,19 14,25 7,6 18,8 31,8 14,0 25,-2 32,-8 5,-3 8,-8 8,-15 0,-4 -2,-7 -4,-10 -3,-3 -9,-5 -19,-7 -45,-10 -74,-19 -86,-28 -17,-11 -25,-27 -25,-47 0,-19 7,-34 22,-46 14,-13 37,-19 67,-19 29,0 50,5 64,14 14,9 24,23 29,42l-52 10c-2,-9 -7,-15 -13,-19 -6,-5 -15,-7 -27,-7 -15,0 -25,2 -32,6 -4,3 -6,7 -6,12 0,4 2,7 5,10 5,3 23,9 53,15 30,7 50,16 62,25 12,10 18,24 18,42 0,19 -8,36 -25,50 -16,14 -40,21 -71,21 -29,0 -52,-6 -69,-18 -16,-11 -27,-27 -33,-47z"/>
  </g>
 </g>
</svg>
