<svg width="266" height="266" viewBox="0 0 266 266" fill="none" xmlns="http://www.w3.org/2000/svg">
<path d="M132.661 264.945C205.72 264.945 264.945 205.72 264.945 132.661C264.945 59.6033 205.72 0.37793 132.661 0.37793C59.6033 0.37793 0.37793 59.6033 0.37793 132.661C0.37793 205.72 59.6033 264.945 132.661 264.945Z" fill="#F58634" stroke="#373435" stroke-width="0.755906"/>
<path d="M132.661 256.668C201.148 256.668 256.668 201.148 256.668 132.662C256.668 64.1748 201.148 8.65527 132.661 8.65527C64.1745 8.65527 8.65503 64.1748 8.65503 132.662C8.65503 201.148 64.1745 256.668 132.661 256.668Z" fill="#373435" stroke="#373435" stroke-width="0.755906"/>
<path d="M101.102 129.411C112.479 128.239 123.817 126.085 135.269 123.968C146.381 103.634 156.737 82.9604 167.887 62.6644C169.927 58.8092 168.076 57.751 166.186 57.751L144.869 57.7888C141.014 57.7888 138.066 60.0943 135.798 64.2896C128.655 77.2911 122.154 89.9903 115.464 103.256C113.65 106.545 101.102 129.411 101.102 129.411ZM85.9842 157.19C94.8283 157.984 103.899 157.379 112.441 155.981C114.368 155.679 116.296 155.338 118.186 154.998L104.844 179.263L100.649 186.557C98.4566 189.959 95.6976 191.773 92.1826 191.622C85.1149 191.622 78.0094 191.622 70.9417 191.622C69.0141 191.622 67.1999 190.715 69.2031 187.049L73.3984 179.716L85.9842 157.19Z" fill="#848688"/>
<path d="M148.951 121.512C133.002 124.195 116.712 127.823 100.724 129.486C94.4882 130.167 88.63 130.205 83.3386 129.108C60.0945 124.384 57.2221 98.003 66.8977 79.9746C47.5087 94.6392 39.2693 117.43 46.0725 134.06C49.2095 141.656 57.789 149.858 68.5607 153.675C82.2426 158.513 97.8898 158.4 112.063 156.056C119.131 154.885 126.123 153.486 133.115 152.126H133.153C135.685 145.209 145.587 128.012 148.951 121.512ZM165.997 147.779C172.989 147.25 179.15 147.212 183.194 148.044C191.395 149.745 196.838 154.507 200.013 160.668C205.493 171.326 204.132 186.217 198.387 196.875C217.776 182.249 226.054 159.42 219.213 142.79C216.113 135.231 207.496 127.03 196.762 123.212C191.735 121.436 186.406 120.34 180.964 119.773C180.888 119.773 165.997 147.779 165.997 147.779Z" fill="#F58634"/>
<path d="M199.484 159.685C205.531 170.381 204.284 185.877 198.35 196.875C183.043 207.647 162.595 208.516 148.536 198.954C135.458 190.072 126.765 174.614 132.775 153.222C134.438 147.25 145.399 128.315 148.951 121.474C159.421 102.387 169.058 82.9982 179.528 63.9872C181.795 59.9431 184.743 57.7132 188.561 57.751L209.839 57.7888C211.729 57.7888 213.543 58.7336 211.502 62.4376C203.981 76.1195 197.102 89.3856 189.997 103.37L180.926 119.773L165.997 147.779C161.273 158.324 159.988 169.852 171.062 175.105C179.717 179.187 195.477 176.315 199.484 159.685Z" fill="#E6E7E8"/>
<path d="M72.8692 199.37V201.071H71.433V204.283C71.433 204.926 71.4708 205.341 71.4708 205.417C71.5086 205.53 71.5842 205.644 71.6598 205.719C71.7732 205.757 71.8865 205.795 72.0377 205.795C72.2267 205.795 72.4913 205.757 72.8692 205.606L73.0582 207.231C72.5669 207.458 71.9999 207.571 71.3952 207.571C71.0173 207.571 70.6771 207.496 70.3747 207.382C70.0724 207.231 69.8456 207.08 69.6944 206.853C69.5432 206.664 69.4676 206.4 69.3921 206.06C69.3543 205.795 69.3165 205.304 69.3165 204.548V201.071H68.3716V199.37H69.3165V197.782L71.433 196.535V199.37H72.8692ZM82.3936 203.263C82.3936 202.582 82.5826 201.902 82.9228 201.222C83.2629 200.579 83.7543 200.088 84.3968 199.748C85.0393 199.37 85.7196 199.219 86.5133 199.219C87.7228 199.219 88.7054 199.597 89.4613 200.39C90.255 201.184 90.633 202.167 90.633 203.376C90.633 204.586 90.255 205.568 89.4613 206.362C88.7054 207.156 87.7228 207.571 86.5133 207.571C85.7952 207.571 85.1149 207.382 84.4346 207.08C83.7921 206.74 83.2629 206.249 82.9228 205.606C82.5826 204.964 82.3936 204.208 82.3936 203.263ZM84.5858 203.376C84.5858 204.17 84.7747 204.775 85.1527 205.19C85.5306 205.644 85.9842 205.833 86.5133 205.833C87.0802 205.833 87.5338 205.644 87.9117 205.19C88.2897 204.775 88.4787 204.17 88.4787 203.376C88.4787 202.582 88.2897 201.978 87.9117 201.562C87.5338 201.146 87.0802 200.919 86.5133 200.919C85.9842 200.919 85.5306 201.146 85.1527 201.562C84.7747 201.978 84.5858 202.582 84.5858 203.376ZM100.346 203.263C100.346 202.582 100.498 201.902 100.876 201.222C101.216 200.579 101.707 200.088 102.312 199.748C102.954 199.37 103.672 199.219 104.428 199.219C105.638 199.219 106.658 199.597 107.414 200.39C108.17 201.184 108.548 202.167 108.548 203.376C108.548 204.586 108.17 205.568 107.414 206.362C106.62 207.156 105.638 207.571 104.466 207.571C103.748 207.571 103.03 207.382 102.387 207.08C101.707 206.74 101.216 206.249 100.876 205.606C100.498 204.964 100.346 204.208 100.346 203.263ZM102.501 203.376C102.501 204.17 102.69 204.775 103.068 205.19C103.446 205.644 103.899 205.833 104.466 205.833C104.995 205.833 105.487 205.644 105.827 205.19C106.205 204.775 106.394 204.17 106.394 203.376C106.394 202.582 106.205 201.978 105.827 201.562C105.487 201.146 104.995 200.919 104.466 200.919C103.899 200.919 103.446 201.146 103.068 201.562C102.69 201.978 102.501 202.582 102.501 203.376ZM118.753 207.345V196.346H120.869V207.345H118.753ZM130.809 205.115L132.964 204.775C133.039 205.19 133.228 205.493 133.493 205.719C133.757 205.946 134.173 206.022 134.664 206.022C135.194 206.022 135.609 205.946 135.874 205.719C136.063 205.606 136.176 205.417 136.176 205.152C136.176 205.001 136.101 204.888 136.025 204.775C135.912 204.661 135.685 204.586 135.307 204.51C133.606 204.132 132.51 203.792 132.057 203.452C131.414 203.036 131.112 202.431 131.112 201.675C131.112 200.957 131.376 200.39 131.943 199.937C132.472 199.445 133.342 199.219 134.476 199.219C135.572 199.219 136.365 199.408 136.894 199.748C137.424 200.088 137.802 200.617 137.99 201.335L136.025 201.713C135.95 201.373 135.761 201.146 135.534 200.995C135.307 200.806 134.967 200.73 134.513 200.73C133.946 200.73 133.568 200.806 133.304 200.957C133.153 201.071 133.077 201.222 133.077 201.411C133.077 201.562 133.153 201.675 133.266 201.789C133.455 201.902 134.135 202.129 135.269 202.356C136.403 202.62 137.159 202.96 137.613 203.301C138.066 203.678 138.293 204.208 138.293 204.888C138.293 205.606 137.99 206.249 137.348 206.778C136.743 207.307 135.836 207.571 134.664 207.571C133.568 207.571 132.699 207.345 132.057 206.891C131.452 206.475 131.036 205.871 130.809 205.115Z" fill="#E6E7E8"/>
</svg>
